Coordinates
version=1
nRows=22
nColumns=24
inDegrees=yes

Units are S.I. units (second, meters, Newtons, ...)
Angles are in degrees.

endheader
time	pelvis_tilt	pelvis_list	pelvis_rotation	pelvis_tx	pelvis_ty	pelvis_tz	hip_flexion_r	hip_adduction_r	hip_rotation_r	knee_angle_r	ankle_angle_r	subtalar_angle_r	mtp_angle_r	hip_flexion_l	hip_adduction_l	hip_rotation_l	knee_angle_l	ankle_angle_l	subtalar_angle_l	mtp_angle_l	lumbar_extension	lumbar_bending	lumbar_rotation
      0.47800000	      6.71614396	     -0.18888029	     -3.60533741	     -0.78652880	      1.00926541	      0.28193604	     10.48043431	      0.85638273	     -0.17163370	      3.70444173	      0.49278913	     -3.80111222	      0.55537834	    -24.88505103	      5.25619859	      9.06660587	     -2.34344357	      9.55697929	    -13.60677249	     -0.51906675	    -22.14659261	      8.71358049	     -6.08786850
      0.48216667	      6.70590269	     -0.30579670	     -3.62939607	     -0.78097946	      1.00863480	      0.28237423	     10.53183008	      1.04301994	      0.13018090	      3.36641391	      0.11443739	     -4.00581820	      0.88209167	    -24.97479600	      5.16546442	      8.80888287	     -2.86091532	      9.82036797	    -13.19295034	     -0.84510445	    -22.15750894	      8.82323618	     -5.98752602
      0.48633333	      6.71547491	     -0.43809242	     -3.64694022	     -0.77540993	      1.00807476	      0.28276209	     10.60160495	      1.23961821	      0.31699456	      2.87454635	     -0.14429986	     -3.98602705	      0.91811208	    -25.11126805	      5.06898433	      8.75497627	     -3.32355488	      9.85146184	    -13.26329758	     -0.87499854	    -22.19308679	      8.97463764	     -5.96427493
      0.49050000	      6.67973640	     -0.58649175	     -3.69399713	     -0.76979129	      1.00749043	      0.28323870	     10.69617111	      1.46582645	      0.66007723	      2.37939300	     -0.55903258	     -4.25373681	      1.18632607	    -25.10933441	      4.95862168	      8.37110526	     -3.97700803	     10.14179360	    -12.71860556	     -1.02031366	    -22.17627167	      9.12234969	     -5.72274626
      0.49466667	      6.67804997	     -0.75000431	     -3.71987683	     -0.76415063	      1.00700045	      0.28368280	     10.76209270	      1.70173730	      0.92366643	      1.81144223	     -0.96383184	     -4.45185894	      1.47395524	    -25.14541594	      4.83063036	      8.09083844	     -4.63188016	     10.32502677	    -12.37753075	     -1.11581216	    -22.20333540	      9.30113796	     -5.64266093
      0.49883333	      6.68334463	     -0.91159395	     -3.74162526	     -0.75849690	      1.00655306	      0.28410618	     10.82192279	      1.93279162	      1.18651067	      1.19814525	     -1.36712298	     -4.67353615	      1.79463166	    -25.15433782	      4.70941477	      7.81902902	     -5.35659775	     10.48138757	    -12.08629830	     -1.15299887	    -22.23612631	      9.47505576	     -5.51641697
      0.50300000	      6.66601702	     -1.08688988	     -3.76409672	     -0.75279715	      1.00611772	      0.28455524	     10.91251858	      2.18354047	      1.43238780	      0.52866142	     -1.79279505	     -4.92639669	      2.14045733	    -25.11313373	      4.57122988	      7.51039472	     -6.13289416	     10.63053625	    -11.77206271	     -1.10884233	    -22.24463123	      9.67062162	     -5.41724294
      0.50716667	      6.66528227	     -1.26932332	     -3.78728718	     -0.74706283	      1.00574022	      0.28499376	     10.98474513	      2.43990488	      1.66500288	     -0.17410158	     -2.22892622	     -5.20809935	      2.51158689	    -25.06839404	      4.42799877	      7.18984722	     -6.95452460	     10.74685077	    -11.43501849	     -0.96415417	    -22.26286570	      9.87940534	     -5.30814701
      0.51133333	      6.65834880	     -1.45803264	     -3.80747655	     -0.74129811	      1.00539335	      0.28544106	     11.06410892	      2.70395091	      1.88818262	     -0.90845816	     -2.66959132	     -5.51684691	      2.87469479	    -24.98986460	      4.27534469	      6.85237156	     -7.82967112	     10.84058618	    -11.08113496	     -0.71770377	    -22.27219015	     10.09076889	     -5.19793024
      0.51550000	      6.57740656	     -1.62221884	     -3.83116729	     -0.73549844	      1.00500195	      0.28589650	     11.24107089	      2.94813883	      2.09284923	     -1.70368801	     -3.07449096	     -5.80466656	      3.00623996	    -24.81729030	      4.14960095	      6.62125711	     -8.72454770	     10.77743383	    -10.94805607	     -0.58063806	    -22.19164036	     10.27164617	     -5.08643151
      0.51966667	      6.61125240	     -1.81559409	     -3.84214655	     -0.72970192	      1.00476833	      0.28634378	     11.27390475	      3.21490226	      2.28030483	     -2.47728609	     -3.49739418	     -6.19337439	      3.29554678	    -24.70798581	      3.98150416	      6.18119220	     -9.74503723	     10.90128800	    -10.39764870	     -0.17172902	    -22.23621219	     10.49721674	     -4.98054919
      0.52383333	      6.56710390	     -1.97844491	     -3.85345863	     -0.72388518	      1.00448348	      0.28679334	     11.40512362	      3.45361608	      2.46617300	     -3.29772279	     -3.86171482	     -6.55513717	      3.50821864	    -24.49007114	      3.84350337	      5.83835924	    -10.80272692	     10.84538629	    -10.09155880	      0.22534032	    -22.19470772	     10.67637144	     -4.86714995
      0.52800000	      6.56596351	     -2.16624560	     -3.86392347	     -0.71803187	      1.00428623	      0.28725156	     11.46843543	      3.71682943	      2.65547486	     -4.09626216	     -4.15810030	     -6.95887855	      5.38171503	    -24.29091208	      3.67510640	      5.43389292	    -11.90323810	     10.64763733	     -9.82636312	      4.61479788	    -22.21080123	     10.90001533	     -4.77269505
      0.53216667	      6.50808404	     -2.32625259	     -3.85995530	     -0.71214419	      1.00406895	      0.28768212	     11.60562500	      3.94841233	      2.79382964	     -4.93699001	     -4.39717318	     -7.25757153	      5.38878072	    -24.00923567	      3.52430268	      5.09371543	    -13.04127188	     10.44791955	     -9.56391278	      4.68862319	    -22.12076700	     11.08420764	     -4.68425801
      0.53633333	      6.51166710	     -2.52352171	     -3.83848193	     -0.70624828	      1.00395574	      0.28811046	     11.66009219	      4.21556452	      2.90889345	     -5.76347053	     -4.59905470	     -7.62445317	      5.40117596	    -23.74725674	      3.31516313	      4.65381784	    -14.27004178	     10.31341884	     -9.05654145	      4.97022666	    -22.13032136	     11.31945315	     -4.59218003
      0.54050000	      6.47037373	     -2.66732084	     -3.84938224	     -0.70035632	      1.00381619	      0.28857614	     11.77725021	      4.43528442	      3.08139329	     -6.62769084	     -4.67785844	     -7.96519420	      5.40393261	    -23.42145819	      3.17482908	      4.28724555	    -15.50715078	      9.98328296	     -8.81659461	      5.17644352	    -22.06733923	     11.48044778	     -4.50782391
      0.54466667	      6.44295202	     -2.84147040	     -3.82258960	     -0.69444866	      1.00373747	      0.28902488	     11.87292455	      4.68067262	      3.16757301	     -7.49303821	     -4.76874713	     -8.31212639	      5.40030303	    -23.06264091	      2.96577090	      3.85058134	    -16.82960762	      9.72087157	     -8.30754936	      5.60462589	    -22.04243278	     11.67571814	     -4.41385227
      0.54883333	      6.44094140	     -3.00150219	     -3.81632856	     -0.68852238	      1.00371639	      0.28949553	     11.91797519	      4.91443017	      3.32867972	     -8.32787489	     -4.67615789	     -8.62710227	      5.39210886	    -22.71660352	      2.77683576	      3.41412073	    -18.15981210	      9.25407604	     -7.96807570	      6.01688357	    -22.01779950	     11.84855412	     -4.33541308
      0.55300000	      6.47255669	     -3.20173937	     -3.77013028	     -0.68258489	      1.00378859	      0.28994539	     11.89652541	      5.18777424	      3.46244740	     -9.11286066	     -4.65629060	     -9.10699097	      5.09084120	    -22.38146985	      2.51401894	      2.97043333	    -19.51556671	      8.66359353	     -7.60569655	     12.76558331	    -22.06089562	     12.08697526	     -4.23739698
      0.55716667	      6.44330855	     -3.33690098	     -3.74426615	     -0.67663426	      1.00381893	      0.29037841	     11.97714346	      5.38712363	      3.53257549	     -9.98404850	     -4.39211465	     -9.23603188	      5.08751467	    -21.94964297	      2.32247945	      2.57629686	    -20.90611811	      8.01371059	     -7.28625654	     12.84888072	    -22.00048326	     12.23293223	     -4.18413974
      0.56133333	      6.44235523	     -3.47989007	     -3.69475782	     -0.67070926	      1.00390286	      0.29080527	     12.01911468	      5.59241698	      3.57059165	    -10.84236711	     -4.13803276	     -9.46761946	      5.06670132	    -21.50568844	      2.09332127	      2.14660280	    -22.36451697	      7.39105847	     -6.81947734	     13.05892894	    -21.97774681	     12.41441574	     -4.10426116
      0.56550000	      6.46527581	     -3.66494135	     -3.63058036	     -0.66475526	      1.00406579	      0.29126812	     11.97363581	      5.84926151	      3.68584448	    -11.59006647	     -3.85887373	     -9.81237446	      4.43218460	    -21.07158262	      1.79581004	      1.69762416	    -23.82747541	      6.57330290	     -6.41463161	     17.68137994	    -21.99253949	     12.61082662	     -4.02577318
